<svg width="360" height="96" viewBox="0 0 360 96" fill="none" xmlns="http://www.w3.org/2000/svg">
  <rect x="8" y="8" width="80" height="80" rx="20" fill="#5B8CFF"/>
  <path d="M28 59V36C28 32.686 30.686 30 34 30H62C65.314 30 68 32.686 68 36V59C68 62.314 65.314 65 62 65H34C30.686 65 28 62.314 28 59Z" stroke="white" stroke-width="5" stroke-linejoin="round"/>
  <path d="M36 30V25C36 21.686 38.686 19 42 19H54C57.314 19 60 21.686 60 25V30" stroke="white" stroke-width="5" stroke-linecap="round"/>
  <path d="M38 45H58" stroke="white" stroke-width="5" stroke-linecap="round"/>
  <path d="M38 56H52" stroke="white" stroke-width="5" stroke-linecap="round"/>
  <text x="108" y="46" fill="#F8FAFC" font-family="Microsoft YaHei, Segoe UI, sans-serif" font-size="28" font-weight="700">糖果盘</text>
  <text x="108" y="70" fill="#CBD5E1" font-family="Microsoft YaHei, Segoe UI, sans-serif" font-size="14">桌面同步客户端</text>
</svg>
